<?xml version="1.0" standalone="no"?>
<!DOCTYPE svg PUBLIC "-//W3C//DTD SVG 20010904//EN"
 "http://www.w3.org/TR/2001/REC-SVG-20010904/DTD/svg10.dtd">
<svg version="1.0" xmlns="http://www.w3.org/2000/svg"
 width="1080.000000pt" height="1080.000000pt" viewBox="0 0 1080.000000 1080.000000"
 preserveAspectRatio="xMidYMid meet">

<g transform="translate(0.000000,1080.000000) scale(0.100000,-0.100000)"
fill="#000000" stroke="none">
<path d="M7350 8250 c-408 -42 -795 -166 -1135 -365 -140 -82 -213 -132 -359
-248 -131 -105 -178 -149 -301 -283 -588 -642 -829 -1479 -680 -2360 48 -282
127 -533 246 -775 132 -269 290 -490 485 -679 261 -253 532 -427 869 -559 160
-63 256 -92 425 -130 252 -55 366 -66 685 -66 325 0 409 9 670 72 440 106 895
353 1216 661 l70 67 -285 285 -285 284 -78 -75 c-152 -146 -283 -239 -470
-332 -180 -90 -305 -131 -518 -169 -144 -26 -406 -30 -555 -9 -626 88 -1146
465 -1426 1036 -80 164 -117 267 -154 425 -44 191 -53 278 -53 495 0 214 14
330 58 506 197 777 815 1340 1575 1434 379 46 736 -7 1066 -160 162 -75 328
-191 471 -328 l84 -81 292 293 292 292 -74 70 c-162 153 -394 310 -626 424
-282 138 -523 211 -858 261 -121 18 -525 27 -647 14z"/>
<path d="M3088 6163 c-4 -2288 5 -2065 -83 -2249 -79 -165 -213 -282 -390
-341 -73 -24 -94 -27 -235 -27 -141 0 -162 3 -235 27 -113 37 -197 91 -275
174 -121 130 -193 311 -207 524 l-6 99 -424 0 -423 0 0 -102 c1 -302 95 -621
255 -865 70 -106 241 -280 346 -350 282 -190 576 -273 969 -273 395 0 701 87
970 276 281 196 466 478 550 835 51 218 50 148 50 2297 l0 2002 -430 0 -430 0
-2 -2027z"/>
<path d="M7736 6508 c-19 -35 -37 -70 -41 -78 -3 -8 -19 -23 -35 -32 -31 -17
-40 -54 -20 -74 6 -6 -15 -76 -60 -199 -39 -104 -70 -193 -70 -198 0 -4 19 -7
42 -5 l42 3 65 181 c59 162 69 183 93 192 29 11 38 48 17 69 -7 7 -4 36 10 97
25 104 25 106 6 106 -7 0 -30 -28 -49 -62z"/>
<path d="M7086 5828 c-25 -34 -62 -136 -73 -200 l-6 -38 401 0 400 0 -14 63
c-20 88 -42 143 -71 177 l-25 30 -293 0 -294 0 -25 -32z"/>
<path d="M6950 5491 c-32 -64 -70 -187 -70 -228 0 -91 47 -198 122 -279 46
-50 149 -106 238 -129 79 -21 242 -23 320 -6 146 34 271 126 333 244 29 56 32
70 32 153 0 82 -4 99 -39 187 l-39 97 -438 0 -439 0 -20 -39z"/>
</g>
</svg>
