<?xml version="1.0" standalone="no"?>
<!DOCTYPE svg PUBLIC "-//W3C//DTD SVG 20010904//EN"
 "http://www.w3.org/TR/2001/REC-SVG-20010904/DTD/svg10.dtd">
<svg version="1.0" xmlns="http://www.w3.org/2000/svg"
 width="198.000000pt" height="198.000000pt" viewBox="0 0 198.000000 198.000000"
 preserveAspectRatio="xMidYMid meet">

<g transform="translate(0.000000,198.000000) scale(0.100000,-0.100000)"
fill="#000000" stroke="none">
<path d="M920 1644 c-177 -30 -288 -84 -394 -190 -127 -126 -191 -283 -190
-464 0 -185 65 -341 192 -465 130 -128 279 -189 462 -189 117 0 181 15 290 66
69 33 101 56 171 127 71 70 94 102 127 171 53 113 67 174 65 300 -2 175 -63
323 -183 446 -89 91 -198 155 -310 182 -52 13 -193 23 -230 16z m265 -69 c323
-108 498 -458 390 -781 -52 -155 -163 -282 -310 -355 -140 -69 -278 -85 -419
-49 -213 54 -371 200 -442 405 -23 68 -28 97 -28 190 -1 124 10 176 61 280
136 275 456 408 748 310z"/>
<path d="M1116 1290 c-61 -24 -110 -70 -144 -135 -34 -66 -43 -203 -18 -289
24 -80 99 -158 175 -180 111 -32 226 -13 299 50 36 30 82 98 82 119 0 7 -35
20 -76 29 -28 6 -33 4 -52 -28 -32 -55 -75 -76 -153 -76 -60 0 -69 3 -106 35
-59 50 -82 136 -63 235 19 100 76 150 174 150 72 0 116 -23 148 -75 13 -24 26
-34 37 -31 9 2 31 7 48 11 44 9 47 18 24 64 -26 51 -92 106 -149 125 -62 22
-165 20 -226 -4z"/>
<path d="M720 1061 c0 -217 -2 -241 -18 -262 -27 -32 -78 -30 -108 4 -22 26
-25 27 -74 16 -46 -10 -50 -13 -44 -32 21 -67 96 -117 177 -117 88 0 155 48
176 125 6 23 11 136 11 273 l0 232 -60 0 -60 0 0 -239z"/>
<path d="M1277 1130 c-28 -81 -30 -110 -2 -43 9 20 14 41 11 47 -2 6 -6 4 -9
-4z"/>
<path d="M1182 1028 c-27 -27 -13 -38 48 -38 53 0 60 2 60 20 0 11 -1 20 -2
21 -32 9 -96 7 -106 -3z"/>
<path d="M1151 958 c-19 -52 21 -91 90 -86 55 4 85 40 70 81 -10 26 -14 27
-81 27 -64 0 -71 -2 -79 -22z"/>
</g>
</svg>
